<?xml version="1.0" standalone="no"?>
<!DOCTYPE svg PUBLIC "-//W3C//DTD SVG 20010904//EN"
 "http://www.w3.org/TR/2001/REC-SVG-20010904/DTD/svg10.dtd">
<svg version="1.0" xmlns="http://www.w3.org/2000/svg"
 width="260.000000pt" height="260.000000pt" viewBox="0 0 260.000000 260.000000"
 preserveAspectRatio="xMidYMid meet">
<metadata>
Created by potrace 1.11, written by Peter Selinger 2001-2013
</metadata>
<g transform="translate(0.000000,260.000000) scale(0.100000,-0.100000)"
fill="#000000" stroke="none">
<path d="M1220 2593 c0 -7 12 -27 28 -45 24 -30 27 -39 22 -91 l-5 -58 -64 81
c-36 44 -68 80 -72 80 -26 0 -10 -31 61 -116 l80 -97 0 -81 c-1 -66 -3 -78
-13 -65 -79 102 -141 167 -153 162 -8 -3 -14 -7 -14 -10 0 -3 41 -54 90 -114
l90 -109 1 -70 c1 -39 -1 -73 -3 -75 -2 -2 -26 24 -53 58 -28 34 -62 75 -76
92 -15 16 -38 43 -52 60 -21 25 -27 27 -41 16 -17 -15 -31 5 149 -217 l80 -99
0 -70 c-1 -78 8 -70 -98 -96 -26 -7 -78 -30 -114 -52 l-66 -40 -54 57 c-41 43
-53 63 -54 88 -1 18 -2 44 -4 58 -1 14 -6 64 -10 112 -4 48 -8 96 -10 105 -2
10 -4 28 -4 41 -1 18 -6 23 -23 20 -25 -3 -25 -5 -14 -103 3 -33 9 -96 13
-139 l6 -80 -57 58 c-43 45 -56 65 -56 89 -1 35 -10 131 -15 162 -2 11 -4 35
-4 53 -1 25 -5 32 -21 32 -17 0 -19 -5 -16 -27 3 -16 7 -62 11 -103 3 -41 9
-84 12 -94 5 -17 2 -17 -23 5 -73 60 -92 91 -98 159 -19 196 -19 196 -38 184
-10 -6 -4 -146 8 -186 8 -28 -9 -21 -50 21 -37 37 -44 53 -45 99 -1 12 -5 22
-10 22 -5 0 -7 -18 -4 -41 7 -49 -4 -59 -66 -59 -55 0 -50 -8 10 -15 35 -5 53
-15 89 -50 l44 -45 -34 4 c-133 16 -178 17 -185 6 -10 -17 -6 -18 67 -25 37
-4 75 -8 85 -10 10 -2 35 -4 56 -4 34 -1 47 -9 100 -61 l62 -61 -35 5 c-19 3
-71 8 -115 11 -44 4 -83 9 -86 11 -7 4 -22 -26 -17 -32 4 -3 71 -12 148 -19
146 -13 142 -12 193 -66 26 -27 47 -52 47 -54 0 -5 -90 2 -125 10 -11 2 -59 7
-107 11 -85 6 -88 6 -88 -15 0 -11 3 -21 8 -22 4 0 21 -2 37 -4 17 -2 55 -6
85 -9 127 -12 186 -19 200 -22 8 -1 23 -3 32 -3 16 -1 118 -96 118 -110 0 -3
-16 -30 -35 -60 -35 -55 -58 -117 -69 -182 l-6 -35 -74 -2 -74 -2 -148 119
c-134 108 -174 131 -174 97 0 -10 60 -62 220 -195 l25 -20 -75 -1 -75 0 -112
91 c-100 80 -133 98 -133 69 0 -4 41 -41 91 -82 l90 -73 -76 -3 -77 -3 -71 58
c-40 31 -78 63 -85 70 -25 25 -50 34 -58 22 -7 -12 23 -41 104 -101 23 -17 42
-35 42 -39 0 -4 -24 -9 -54 -11 -47 -3 -59 1 -87 25 -18 15 -38 27 -44 27 -5
0 10 -18 35 -39 25 -21 43 -41 40 -43 -3 -3 -22 -17 -43 -33 -21 -15 -35 -30
-32 -33 3 -3 22 8 43 24 34 26 42 29 95 24 l57 -5 -61 -50 c-34 -27 -69 -57
-80 -65 -13 -10 -16 -19 -9 -29 7 -12 20 -5 67 34 32 27 60 52 63 55 3 3 21
18 42 33 33 26 42 28 112 25 l76 -3 -81 -65 c-96 -78 -100 -82 -89 -100 6 -10
34 8 120 79 l111 92 65 2 c36 1 69 0 74 -3 5 -3 -45 -49 -111 -103 -65 -54
-119 -102 -119 -106 0 -5 6 -13 13 -19 13 -11 42 9 137 92 14 12 57 47 97 79
70 57 73 58 135 59 96 0 93 1 95 -37 4 -49 39 -137 78 -193 l33 -49 -53 -53
c-39 -38 -62 -53 -87 -56 -18 -2 -69 -8 -113 -13 -44 -6 -109 -13 -145 -16
-85 -8 -89 -10 -83 -35 5 -18 11 -20 52 -15 105 12 149 17 203 24 32 4 60 6
62 4 2 -2 -22 -28 -52 -58 -37 -36 -65 -55 -82 -56 -47 -2 -180 -17 -222 -25
-16 -3 -28 -12 -28 -21 0 -13 10 -14 63 -8 136 14 167 16 167 8 0 -5 -21 -30
-47 -55 -50 -49 -57 -52 -178 -64 -38 -4 -79 -8 -90 -10 -11 -1 -23 -3 -27 -3
-5 -1 -8 -8 -8 -17 0 -14 8 -15 53 -10 28 4 76 9 106 13 l54 5 -39 -46 c-26
-30 -47 -46 -64 -46 -35 -2 -61 -7 -68 -15 -4 -4 19 -5 52 -2 l59 4 -6 -55
c-4 -32 -2 -51 3 -46 5 5 10 27 12 49 2 33 11 47 46 80 l44 39 -7 -99 c-4 -55
-9 -103 -12 -107 -2 -5 5 -8 16 -8 18 0 21 7 22 43 1 23 3 58 5 77 2 19 5 57
8 84 4 44 10 55 60 105 l57 56 -7 -75 c-11 -113 -10 -163 3 -167 16 -6 21 17
29 122 3 50 8 101 9 115 2 14 4 31 4 38 1 7 26 39 56 70 l55 57 -4 -40 c-26
-269 -26 -290 -2 -290 11 0 20 8 22 18 3 24 12 125 19 217 11 139 12 141 68
197 l52 52 64 -39 c39 -24 91 -45 135 -55 l72 -16 1 -74 2 -75 -92 -112 c-50
-62 -94 -115 -97 -118 -3 -3 -17 -20 -29 -39 -20 -27 -21 -35 -10 -42 8 -5 17
-9 20 -9 3 0 49 54 103 120 54 66 99 120 101 120 2 0 3 -33 4 -73 l1 -73 -91
-112 c-80 -99 -98 -132 -69 -132 4 0 41 41 82 91 l73 90 3 -76 3 -76 -81 -100
c-72 -90 -87 -119 -61 -119 5 0 37 36 72 81 l64 81 3 -62 c3 -53 0 -65 -23
-91 -37 -45 -30 -56 9 -14 39 41 58 38 90 -10 10 -15 20 -24 23 -21 3 3 -6 21
-21 41 -23 30 -27 43 -24 95 l3 60 63 -80 c40 -49 69 -77 78 -73 18 7 10 20
-75 123 l-71 85 0 80 c1 65 3 77 13 64 79 -102 141 -167 153 -162 8 3 14 7 14
10 0 3 -41 55 -90 115 l-91 109 0 70 c0 39 1 73 3 75 2 2 48 -50 102 -116 53
-66 101 -120 105 -120 5 0 13 6 19 13 9 10 -16 47 -108 158 -66 79 -120 151
-121 159 -1 19 -2 110 0 131 1 11 12 16 35 17 45 2 133 36 190 74 l47 31 53
-55 53 -54 7 -88 c7 -82 16 -176 21 -221 1 -11 3 -30 4 -43 1 -18 6 -23 24
-20 15 2 21 9 20 22 -1 11 -4 52 -7 90 -12 134 -18 191 -23 199 -12 20 13 1
62 -48 51 -51 55 -60 56 -103 0 -26 3 -60 5 -77 10 -69 13 -102 14 -127 0 -21
5 -28 19 -28 15 0 18 6 16 27 -2 16 -7 71 -11 123 l-7 95 57 -59 c41 -44 56
-68 57 -90 1 -17 3 -42 5 -56 6 -47 12 -115 13 -142 1 -21 5 -26 17 -21 13 5
15 18 9 87 -3 45 -8 89 -11 99 -8 27 10 20 51 -20 37 -36 42 -48 44 -101 1
-13 5 -21 9 -18 5 3 6 26 2 51 -8 50 -10 48 70 45 58 -2 49 7 -15 15 -28 4
-51 11 -53 16 -2 5 -20 25 -40 45 l-37 37 35 -6 c82 -15 178 -19 185 -7 10 16
7 18 -63 25 -35 3 -73 8 -84 10 -11 3 -39 5 -61 7 -35 2 -50 11 -94 54 -29 28
-53 55 -53 58 0 4 15 5 33 2 17 -3 66 -8 107 -12 41 -3 78 -8 81 -10 6 -3 19
19 19 31 0 3 -59 11 -160 21 -126 12 -126 12 -179 63 -28 27 -51 52 -51 55 0
5 93 -1 140 -9 14 -3 60 -8 103 -11 74 -7 77 -6 77 15 0 11 -3 21 -7 22 -5 0
-21 2 -38 4 -16 2 -57 6 -90 10 -33 3 -78 7 -100 10 -22 3 -62 7 -88 10 -51 5
-79 23 -130 82 l-29 33 36 57 c37 60 60 120 70 184 l6 36 76 0 c81 0 75 3 192
-94 141 -117 176 -142 189 -131 7 6 13 14 13 18 0 4 -54 51 -120 104 -66 53
-120 98 -120 100 0 2 33 4 73 5 l72 2 112 -91 c100 -81 133 -99 133 -70 0 4
-40 41 -90 81 -49 40 -90 74 -90 76 0 2 35 3 78 3 l77 0 98 -80 c88 -71 117
-86 117 -61 0 4 -36 37 -80 72 l-80 64 60 3 c52 3 65 -1 95 -24 20 -15 38 -24
41 -21 3 2 -8 14 -24 26 -45 32 -47 57 -6 88 19 14 32 28 30 31 -3 3 -21 -7
-41 -22 -30 -23 -43 -27 -95 -24 l-60 3 80 65 c44 36 80 68 80 72 0 24 -30 8
-117 -62 l-98 -80 -79 0 c-44 0 -76 4 -70 8 5 5 46 39 92 77 45 37 82 72 82
76 0 26 -31 9 -130 -71 -106 -85 -115 -90 -161 -91 -27 -1 -58 -2 -69 -2 -11
-1 -19 3 -17 8 1 6 53 52 114 103 62 51 113 97 113 101 0 5 -6 13 -13 19 -10
9 -32 -4 -93 -55 -222 -185 -207 -175 -285 -177 -75 -2 -89 7 -89 53 0 34 -39
128 -75 179 l-33 49 53 53 54 53 113 13 c141 17 218 25 241 27 9 1 17 5 17 10
0 4 0 14 0 22 0 13 -9 15 -47 10 -109 -12 -151 -17 -205 -24 -32 -4 -60 -6
-62 -4 -2 2 21 28 51 58 39 41 61 55 83 56 17 1 33 2 38 3 6 2 168 18 197 20
5 1 11 9 13 20 4 20 0 20 -180 -1 -27 -3 -48 -1 -48 4 0 5 21 30 48 55 32 32
58 48 82 51 42 7 145 19 180 23 14 1 28 2 33 3 4 1 7 8 7 17 0 13 -7 15 -37
11 -21 -4 -69 -9 -108 -13 l-70 -6 45 45 c33 34 55 47 84 52 56 8 59 17 5 14
-63 -3 -72 4 -64 58 4 30 2 43 -5 38 -5 -3 -10 -22 -10 -41 0 -28 -9 -44 -46
-82 l-46 -47 7 80 c3 44 7 92 9 108 2 17 -1 27 -10 27 -19 0 -21 -8 -29 -105
-11 -144 -11 -145 -71 -205 l-55 -55 7 80 c12 129 11 160 -5 160 -16 0 -16 0
-25 -105 -16 -184 -14 -179 -72 -239 l-53 -56 4 40 c7 71 19 229 19 260 1 23
-3 30 -18 30 -11 0 -20 -8 -22 -20 -4 -26 -13 -122 -20 -215 -10 -143 -9 -140
-65 -196 -50 -50 -54 -53 -74 -39 -40 29 -132 73 -166 80 -57 10 -74 13 -80
14 -4 1 -7 35 -7 76 l-1 75 119 147 c92 113 117 150 108 160 -6 7 -14 13 -18
13 -4 0 -51 -54 -104 -120 -53 -66 -98 -120 -100 -120 -2 0 -4 33 -5 73 l-1
73 91 111 c80 99 98 133 70 133 -5 0 -35 -33 -67 -72 -102 -126 -94 -123 -94
-34 l0 78 80 100 c72 90 86 118 61 118 -5 0 -37 -36 -72 -81 l-64 -81 -5 58
c-5 53 -2 62 23 92 15 18 27 38 27 44 0 6 -17 -8 -37 -32 l-37 -43 -38 44
c-21 24 -38 39 -38 32z m55 -1060 c0 -90 -2 -163 -6 -163 -3 0 -56 52 -119
116 l-113 115 29 20 c63 43 149 75 199 76 6 0 10 -61 10 -164z m171 136 c27
-11 64 -30 82 -43 l32 -23 -113 -117 c-61 -64 -114 -116 -117 -116 -5 0 -6
303 -2 322 3 10 56 -1 118 -23z m-330 -219 c60 -61 110 -114 112 -118 2 -8
-314 -10 -322 -1 -10 10 24 122 51 169 21 36 39 58 49 60 1 0 50 -50 110 -110z
m512 76 c38 -55 83 -195 64 -197 -15 -2 -331 -4 -329 -3 1 2 52 54 112 118 61
63 115 116 120 116 6 0 20 -15 33 -34z m-417 -281 c-16 -16 -68 -70 -115 -119
l-85 -90 -22 20 c-12 10 -30 36 -40 57 -22 42 -48 137 -43 152 3 6 68 10 169
10 l164 0 -28 -30z m483 24 c17 -17 -69 -229 -94 -229 -3 0 -58 53 -123 118
l-117 118 164 -1 c90 0 167 -3 170 -6z m-419 -196 l0 -168 -30 3 c-49 5 -117
30 -163 60 l-42 29 117 121 c64 67 117 122 118 122 0 0 0 -75 0 -167z m285
-73 c0 -3 -24 -20 -52 -37 -54 -32 -100 -49 -153 -56 l-30 -4 0 168 0 169 117
-117 c65 -65 118 -120 118 -123z"/>
</g>
</svg>
